<?xml version="1.0" encoding="utf-8"?>
<!-- Generator: Adobe Illustrator 16.0.0, SVG Export Plug-In . SVG Version: 6.00 Build 0)  -->
<!DOCTYPE svg PUBLIC "-//W3C//DTD SVG 1.1//EN" "http://www.w3.org/Graphics/SVG/1.1/DTD/svg11.dtd">
<svg version="1.1" id="Layer_1" xmlns="http://www.w3.org/2000/svg" xmlns:xlink="http://www.w3.org/1999/xlink" x="0px" y="0px"
	 width="83px" height="71.5px" viewBox="0 51.5 83 71.5" enable-background="new 0 51.5 83 71.5" xml:space="preserve">
<g>
	<path fill="#0194DA" d="M0,120.392c0.134-0.011,0.146-0.126,0.157-0.213c0.019-0.152,0.045-0.297,0.128-0.429
		c0.014-0.021,0.023-0.048,0.025-0.075c0.05-0.531,0.251-1.026,0.365-1.545c0.062-0.278,0.143-0.563,0.213-0.844
		c0.071-0.279,0.185-0.552,0.208-0.847c0.017-0.22,0.119-0.424,0.175-0.636c0.076-0.29,0.116-0.591,0.222-0.873
		c0.038-0.1,0.063-0.203,0.066-0.311c0.001-0.035,0.001-0.071,0.008-0.106c0.074-0.392,0.207-0.471,0.54-0.264
		c0.605,0.377,1.265,0.631,1.919,0.894c0.538,0.217,1.084,0.419,1.653,0.56c0.288,0.071,0.591,0.114,0.864,0.249
		c0.106,0.053,0.231,0.021,0.34,0.055c0.408,0.127,0.833,0.159,1.25,0.235c0.192,0.035,0.385,0.062,0.581,0.062
		c0.417,0,0.834,0.007,1.251,0.01c0.293,0.002,0.58-0.011,0.867-0.099c0.269-0.081,0.551-0.116,0.827-0.178
		c0.836-0.188,1.433-0.71,1.94-1.35c0.179-0.227,0.275-0.518,0.341-0.799c0.062-0.265,0.143-0.527,0.155-0.807
		c0.015-0.33-0.006-0.647-0.082-0.973c-0.068-0.294-0.143-0.583-0.275-0.854c-0.277-0.564-0.675-1.021-1.177-1.406
		c-0.438-0.335-0.901-0.629-1.383-0.88c-0.601-0.313-1.205-0.628-1.837-0.88c-0.492-0.195-0.968-0.43-1.447-0.657
		c-0.734-0.349-1.428-0.771-2.114-1.206c-1.163-0.736-2.145-1.676-3.01-2.733c-0.583-0.713-1.045-1.505-1.374-2.377
		c-0.175-0.466-0.326-0.939-0.407-1.421c-0.154-0.906-0.283-1.822-0.069-2.743c0.026-0.11,0.018-0.229,0.02-0.345
		c0.003-0.214,0.041-0.422,0.09-0.63c0.081-0.344,0.129-0.694,0.238-1.032c0.158-0.486,0.309-0.975,0.528-1.438
		c0.219-0.463,0.447-0.921,0.737-1.341c0.226-0.325,0.441-0.659,0.714-0.954c0.391-0.422,0.774-0.85,1.216-1.219
		c0.671-0.563,1.384-1.063,2.19-1.421c0.233-0.104,0.455-0.234,0.691-0.335c0.406-0.173,0.824-0.31,1.242-0.451
		c0.266-0.091,0.549-0.123,0.806-0.241c0.016-0.007,0.034-0.016,0.05-0.017c0.41-0.012,0.793-0.175,1.2-0.204
		c0.186-0.015,0.371-0.024,0.552-0.073c0.303-0.081,0.616-0.075,0.925-0.083c0.86-0.021,1.722-0.023,2.581,0.032
		c0.467,0.03,0.938,0.076,1.395,0.175c0.465,0.1,0.947,0.127,1.398,0.283c0.31,0.108,0.631,0.164,0.945,0.257
		c0.534,0.158,1.056,0.349,1.574,0.545c0.302,0.114,0.603,0.242,0.883,0.414c0.349,0.215,0.378,0.223,0.262,0.613
		c-0.086,0.287-0.133,0.584-0.238,0.868c-0.081,0.221-0.118,0.461-0.177,0.692c-0.091,0.358-0.2,0.714-0.277,1.074
		c-0.067,0.311-0.167,0.612-0.228,0.926c-0.045,0.229-0.122,0.459-0.18,0.69c-0.082,0.323-0.183,0.644-0.252,0.971
		c-0.042,0.2-0.15,0.379-0.158,0.589c-0.004,0.097-0.075,0.138-0.171,0.105c-0.059-0.021-0.117-0.042-0.17-0.072
		c-0.566-0.329-1.167-0.586-1.775-0.818c-0.397-0.151-0.799-0.313-1.23-0.374c-0.195-0.029-0.392-0.104-0.581-0.165
		c-0.479-0.156-0.985-0.118-1.463-0.259c-0.204-0.061-0.423-0.026-0.636-0.027c-0.381-0.001-0.764-0.033-1.141,0.04
		c-0.528,0.102-1.058,0.207-1.542,0.455c-0.594,0.306-1.089,0.715-1.394,1.332c-0.196,0.395-0.343,0.793-0.319,1.241
		c0.008,0.142-0.002,0.284-0.003,0.426c-0.005,0.896,0.416,1.584,1.06,2.161c0.564,0.505,1.216,0.879,1.884,1.224
		c0.612,0.316,1.241,0.6,1.87,0.883c0.619,0.278,1.249,0.536,1.841,0.878c0.28,0.162,0.576,0.304,0.86,0.464
		c0.462,0.26,0.908,0.549,1.339,0.859c0.503,0.359,1,0.733,1.432,1.176c0.431,0.441,0.862,0.883,1.221,1.394
		c0.389,0.552,0.732,1.128,1.01,1.739c0.24,0.531,0.43,1.081,0.551,1.656c0.121,0.572,0.211,1.149,0.263,1.729
		c0.045,0.503,0.052,1.016-0.01,1.515c-0.083,0.676-0.134,1.358-0.31,2.02c-0.091,0.341-0.164,0.689-0.293,1.016
		c-0.18,0.457-0.356,0.918-0.601,1.349c-0.209,0.369-0.436,0.727-0.666,1.082c-0.223,0.346-0.541,0.606-0.792,0.926
		c-0.333,0.422-0.768,0.729-1.178,1.064c-0.495,0.408-1.042,0.727-1.602,1.027c-0.476,0.256-0.975,0.464-1.477,0.66
		c-0.233,0.091-0.487,0.155-0.726,0.237c-0.285,0.1-0.594,0.098-0.863,0.243c-0.044,0.023-0.103,0.029-0.155,0.029
		c-0.18,0.002-0.346,0.081-0.517,0.104c-0.447,0.059-0.885,0.17-1.333,0.224c-0.343,0.041-0.687,0.071-1.03,0.106
		c-0.037,0.004-0.067,0.02-0.086,0.053c-1.011,0-2.023,0-3.034,0c-0.014-0.037-0.041-0.059-0.079-0.06
		c-0.222-0.007-0.436-0.065-0.658-0.083c-0.264-0.021-0.533-0.003-0.792-0.086c-0.134-0.042-0.274-0.072-0.417-0.077
		c-0.393-0.012-0.768-0.13-1.147-0.211c-0.258-0.055-0.521-0.101-0.774-0.172c-0.442-0.124-0.874-0.278-1.317-0.395
		c-0.149-0.039-0.268-0.132-0.415-0.168c-0.352-0.088-0.672-0.264-1.003-0.406c-0.369-0.159-0.734-0.338-1.081-0.548
		c-0.059-0.035-0.126-0.072-0.2-0.03C0,120.64,0,120.516,0,120.392z"/>
	<path fill="#9FB73C" d="M73.21,110.785c-0.085-0.071-0.188-0.04-0.282-0.04c-2.733,0-5.465,0.004-8.197,0.005
		c-0.07,0-0.143,0-0.21-0.017c-0.103-0.024-0.173-0.087-0.173-0.204c0-0.053-0.003-0.106-0.003-0.16
		c0-11.123,0.002-23.072,0.002-34.195c0-0.204,0.001-0.408,0-0.611c0-0.07,0.014-0.144-0.028-0.208c2.964,0,5.927,0,8.891,0
		C73.21,86.89,73.21,99.25,73.21,110.785z"/>
	<path fill="#0194DA" d="M40.997,107.924c-3.185,0-6.371,0.001-9.557-0.003c-0.382,0-0.459,0.024-0.387,0.475
		c0.04,0.245,0.089,0.488,0.091,0.736c0.001,0.135,0.029,0.266,0.071,0.393c0.049,0.144,0.076,0.29,0.081,0.442
		c0.009,0.261,0.141,0.49,0.212,0.734c0.138,0.465,0.339,0.911,0.567,1.339c0.124,0.231,0.28,0.447,0.426,0.668
		c0.42,0.633,0.942,1.165,1.549,1.624c0.418,0.317,0.871,0.573,1.326,0.821c0.314,0.173,0.668,0.274,1.009,0.396
		c0.276,0.098,0.559,0.177,0.84,0.23c0.451,0.086,0.896,0.219,1.358,0.234c0.214,0.008,0.424,0.031,0.632,0.082
		c0.087,0.021,0.176,0.025,0.263,0.025c0.453,0.001,0.906,0.006,1.358-0.004c0.23-0.004,0.46-0.024,0.688-0.057
		c0.378-0.053,0.761-0.036,1.141-0.057c0.195-0.01,0.389-0.03,0.576-0.093c0.033-0.011,0.068-0.027,0.102-0.027
		c0.438,0.006,0.854-0.132,1.28-0.19c0.132-0.018,0.266-0.029,0.389-0.079c0.125-0.051,0.252-0.083,0.387-0.083
		c0.091-0.001,0.174-0.029,0.256-0.063c0.074-0.031,0.149-0.064,0.227-0.075c0.378-0.052,0.733-0.193,1.1-0.293
		c0.238-0.063,0.459-0.187,0.709-0.21c0.055-0.006,0.1-0.035,0.14-0.072c0.072-0.067,0.163-0.06,0.25-0.067
		c0.129-0.01,0.187,0.041,0.211,0.177c0.084,0.468,0.175,0.936,0.262,1.404c0.07,0.381,0.188,0.752,0.227,1.143
		c0.03,0.294,0.132,0.584,0.188,0.88c0.026,0.139,0.06,0.276,0.087,0.415c0.086,0.441,0.182,0.881,0.273,1.32
		c0.012,0.052,0.023,0.105,0.025,0.158c0.004,0.17,0.035,0.329,0.103,0.489c0.089,0.21,0.038,0.268-0.162,0.364
		c-0.334,0.164-0.686,0.277-1.03,0.413c-0.216,0.086-0.44,0.177-0.677,0.214c-0.209,0.035-0.402,0.132-0.605,0.192
		c-0.525,0.159-1.059,0.279-1.593,0.4c-0.342,0.077-0.685,0.176-1.04,0.203c-0.185,0.013-0.368,0.046-0.548,0.1
		c-0.274,0.082-0.563,0.051-0.844,0.09c-0.096,0.014-0.194,0.011-0.288,0.046c-0.151,0.059-0.31,0.072-0.47,0.076
		c-0.523,0.009-1.044,0.06-1.562,0.131c-0.088,0.012-0.177,0.02-0.265,0.021c-0.967,0.008-1.935,0.028-2.901-0.008
		c-0.361-0.014-0.72-0.078-1.082-0.12c-0.035-0.004-0.07-0.012-0.105-0.014c-0.292-0.014-0.577-0.057-0.865-0.104
		c-0.427-0.071-0.851-0.159-1.278-0.232c-0.251-0.043-0.499-0.115-0.744-0.19c-0.421-0.131-0.84-0.269-1.256-0.414
		c-0.282-0.1-0.558-0.215-0.829-0.342c-0.415-0.192-0.837-0.37-1.23-0.607c-0.674-0.408-1.322-0.85-1.932-1.35
		c-0.667-0.547-1.268-1.156-1.819-1.814c-0.454-0.54-0.839-1.132-1.214-1.731c-0.362-0.581-0.639-1.199-0.924-1.818
		c-0.211-0.458-0.387-0.929-0.547-1.403c-0.144-0.425-0.291-0.853-0.364-1.3c-0.034-0.209-0.122-0.404-0.165-0.614
		c-0.119-0.58-0.188-1.169-0.296-1.749c-0.114-0.615-0.104-1.235-0.188-1.849c-0.111-0.812-0.105-1.627-0.083-2.442
		c0.012-0.424,0.057-0.848,0.112-1.269c0.046-0.354-0.001-0.711,0.07-1.061c0.065-0.321,0.068-0.656,0.137-0.973
		c0.131-0.603,0.189-1.222,0.378-1.814c0.076-0.242,0.125-0.495,0.191-0.743c0.08-0.298,0.185-0.589,0.266-0.887
		c0.097-0.35,0.226-0.688,0.363-1.021c0.225-0.546,0.454-1.089,0.708-1.623c0.255-0.537,0.562-1.043,0.867-1.547
		c0.329-0.543,0.692-1.065,1.1-1.557c0.323-0.388,0.647-0.776,1.009-1.128c0.47-0.455,0.948-0.899,1.472-1.297
		c0.536-0.406,1.087-0.784,1.674-1.108c0.51-0.282,1.037-0.526,1.581-0.738c0.535-0.209,1.083-0.372,1.637-0.523
		c0.539-0.146,1.092-0.209,1.637-0.316c0.723-0.141,1.45-0.111,2.173-0.118c0.615-0.006,1.235-0.012,1.854,0.104
		c0.459,0.086,0.923,0.161,1.386,0.239c0.2,0.034,0.396,0.094,0.59,0.157c0.789,0.258,1.573,0.532,2.301,0.937
		c1.047,0.583,2.011,1.281,2.827,2.17c0.649,0.707,1.231,1.459,1.713,2.292c0.302,0.521,0.581,1.051,0.828,1.597
		c0.186,0.41,0.387,0.819,0.509,1.25c0.123,0.431,0.31,0.842,0.382,1.29c0.034,0.215,0.113,0.426,0.172,0.638
		c0.093,0.334,0.146,0.676,0.215,1.012c0.106,0.509,0.167,1.029,0.243,1.546c0.104,0.714,0.081,1.433,0.165,2.144
		c0.098,0.831,0.103,1.664,0.081,2.496c-0.014,0.511-0.081,1.022-0.118,1.534c-0.015,0.194-0.021,0.39-0.022,0.586
		c0,0.206-0.055,0.401-0.111,0.598c-0.039,0.131-0.115,0.185-0.253,0.18c-0.23-0.009-0.461-0.002-0.692-0.002
		c-2.999,0-5.999,0-8.998,0C40.997,107.926,40.997,107.925,40.997,107.924z M37.006,101.501L37.006,101.501c1.836,0,3.671,0,5.507,0
		c0.062,0,0.125,0.002,0.187-0.003c0.176-0.011,0.218-0.048,0.225-0.225c0.029-0.835-0.005-1.668-0.198-2.481
		c-0.111-0.47-0.22-0.943-0.394-1.4c-0.236-0.623-0.508-1.224-0.899-1.763c-0.387-0.532-0.856-0.983-1.415-1.339
		c-0.276-0.176-0.561-0.337-0.875-0.437c-0.251-0.08-0.504-0.159-0.769-0.193c-0.147-0.021-0.282-0.098-0.437-0.106
		c-0.838-0.052-1.661,0.01-2.458,0.297c-0.385,0.14-0.757,0.318-1.082,0.553c-0.567,0.406-1.081,0.881-1.474,1.475
		c-0.115,0.176-0.228,0.355-0.345,0.531c-0.276,0.413-0.491,0.859-0.684,1.317c-0.144,0.341-0.258,0.693-0.358,1.05
		c-0.079,0.279-0.178,0.555-0.231,0.839c-0.07,0.381-0.195,0.755-0.189,1.149c0,0.069-0.026,0.14-0.042,0.209
		c-0.105,0.465-0.058,0.527,0.422,0.527C33.335,101.502,35.171,101.501,37.006,101.501z"/>
	<path fill="#0194DA" d="M53.142,105.742c0-5.607,0-11.213,0-16.819c0-0.045-0.001-0.089,0-0.134
		c0.008-0.207,0.065-0.269,0.271-0.272c0.294-0.007,0.583,0.032,0.877,0.031c2.386-0.004,4.772,0,7.158,0.004
		c0.09,0,0.177-0.018,0.265-0.026c0.149-0.017,0.236,0.053,0.25,0.204c0.011,0.142,0.009,0.284,0.009,0.426
		c-0.002,10.832-0.003,21.663-0.006,32.495c0,0.354,0.008,0.709,0.003,1.065c-0.003,0.262-0.026,0.282-0.298,0.283
		C60.641,123,59.612,123,58.583,123c-1.686,0-3.372,0-5.057,0c-0.019,0-0.036,0-0.053,0c-0.315-0.003-0.332-0.018-0.332-0.332
		C53.142,117.026,53.142,111.384,53.142,105.742z"/>
	<path fill="#0194DA" d="M68.251,113.03c0.15,0,0.239,0.003,0.326-0.001c0.486-0.025,0.933,0.118,1.389,0.266
		c0.406,0.131,0.768,0.329,1.096,0.573c0.401,0.302,0.773,0.645,1.075,1.058c0.236,0.324,0.458,0.655,0.606,1.022
		c0.09,0.226,0.205,0.453,0.216,0.706c0.009,0.178,0.11,0.328,0.128,0.511c0.052,0.522,0.026,1.045,0.026,1.566
		c0,0.053-0.008,0.107-0.023,0.158c-0.199,0.665-0.399,1.328-0.796,1.916c-0.584,0.864-1.354,1.485-2.323,1.854
		c-0.312,0.117-0.633,0.219-0.977,0.237c-0.251,0.014-0.499,0.146-0.758,0.089c-0.404-0.089-0.829-0.077-1.22-0.238
		c-0.146-0.061-0.308-0.078-0.458-0.135c-0.545-0.209-1.002-0.552-1.433-0.935c-0.48-0.43-0.812-0.965-1.102-1.537
		c-0.19-0.376-0.315-0.774-0.392-1.173c-0.084-0.447-0.108-0.915-0.057-1.377c0.008-0.061,0.018-0.124,0.017-0.185
		c-0.009-0.417,0.134-0.797,0.255-1.186c0.227-0.729,0.658-1.337,1.178-1.865c0.347-0.351,0.755-0.656,1.22-0.877
		c0.385-0.184,0.792-0.29,1.194-0.411C67.717,112.986,68.021,113.04,68.251,113.03z"/>
	<path fill="#9FB73C" d="M57.483,85.272c-0.333,0.032-0.717-0.028-1.078-0.134c-0.469-0.137-0.937-0.305-1.345-0.604
		c-0.264-0.192-0.549-0.354-0.78-0.591c-0.429-0.44-0.807-0.924-1.043-1.489c-0.187-0.447-0.322-0.912-0.402-1.397
		c-0.109-0.663-0.061-1.318,0.084-1.951c0.154-0.677,0.438-1.311,0.89-1.871c0.31-0.386,0.656-0.714,1.042-1.007
		c0.428-0.322,0.913-0.552,1.425-0.687c0.416-0.108,0.844-0.195,1.283-0.187c0.824,0.015,1.59,0.223,2.305,0.631
		c0.521,0.298,0.951,0.701,1.356,1.138c0.105,0.113,0.132,0.273,0.231,0.386c0.397,0.445,0.519,1.019,0.728,1.551
		c0.06,0.151,0.055,0.33,0.08,0.496c0.08,0.52,0.064,1.038-0.007,1.56c-0.061,0.441-0.195,0.861-0.359,1.271
		c-0.078,0.192-0.152,0.396-0.311,0.548c-0.1,0.095-0.109,0.237-0.193,0.345c-0.503,0.658-1.12,1.174-1.865,1.542
		C58.895,85.132,58.234,85.274,57.483,85.272z"/>
</g>
</svg>
