<?xml version="1.0" encoding="utf-8"?>
<!-- Generator: Adobe Illustrator 19.0.0, SVG Export Plug-In . SVG Version: 6.00 Build 0)  -->
<svg version="1.1" id="Camada_1" xmlns="http://www.w3.org/2000/svg" xmlns:xlink="http://www.w3.org/1999/xlink" x="0px" y="0px"
	 viewBox="0 0 595.3 234.1" style="enable-background:new 0 0 595.3 234.1;" xml:space="preserve">
<style type="text/css">
	.st0{fill:#0092A7;}
	.st1{fill:#00AAAE;}
	.st2{fill:#26AA85;}
	.st3{opacity:0.46;}
	.st4{fill:#5F6766;}
	.st5{opacity:0.46;fill:#5F6766;}
	.st6{fill:#D4D4D3;}
	.st7{fill:#576367;}
	.st8{fill:#E9E8E7;}
	.st9{fill:#7E7E7D;}
	.st10{fill:#9BC0D3;}
	.st11{fill:#FFFFFF;}
</style>
<rect id="XMLID_187_" x="24.6" y="54.2" class="st0" width="34.1" height="79.5"/>
<rect id="XMLID_184_" x="68" y="25.3" class="st1" width="34.1" height="95.5"/>
<rect id="XMLID_180_" x="111.8" y="39.7" class="st2" width="34.1" height="64.9"/>
<g id="XMLID_178_" class="st3">
	<circle id="XMLID_179_" class="st4" cx="41" cy="57" r="9.5"/>
</g>
<circle id="XMLID_177_" class="st5" cx="85.2" cy="28.3" r="9.5"/>
<g id="XMLID_174_">
	<line id="XMLID_176_" class="st6" x1="41.6" y1="54.2" x2="85" y2="25.3"/>
	
		<rect id="XMLID_175_" x="60.7" y="13.6" transform="matrix(0.5535 0.8328 -0.8328 0.5535 61.3619 -35.0001)" class="st7" width="5.2" height="52.2"/>
</g>
<g id="XMLID_171_">
	<line id="XMLID_173_" class="st7" x1="85" y1="25.3" x2="128.8" y2="39.5"/>
	
		<rect id="XMLID_172_" x="83.9" y="29.8" transform="matrix(0.9508 0.3098 -0.3098 0.9508 15.3015 -31.5281)" class="st7" width="46" height="5.2"/>
</g>
<g id="XMLID_169_" class="st3">
	<circle id="XMLID_170_" class="st4" cx="128.8" cy="42.1" r="9.5"/>
</g>
<g id="XMLID_164_">
	<circle id="XMLID_168_" class="st8" cx="41.6" cy="54.2" r="7.3"/>
	<path id="XMLID_165_" class="st7" d="M41.6,64.1c-5.5,0-9.9-4.4-9.9-9.9c0-5.5,4.4-9.9,9.9-9.9c5.5,0,9.9,4.4,9.9,9.9
		C51.5,59.6,47.1,64.1,41.6,64.1z M41.6,49.4c-2.6,0-4.7,2.1-4.7,4.7c0,2.6,2.1,4.7,4.7,4.7c2.6,0,4.7-2.1,4.7-4.7
		C46.3,51.6,44.2,49.4,41.6,49.4z"/>
</g>
<g id="XMLID_159_">
	<circle id="XMLID_163_" class="st8" cx="85" cy="25.3" r="7.3"/>
	<path id="XMLID_160_" class="st7" d="M85,35.2c-5.5,0-9.9-4.4-9.9-9.9c0-5.5,4.4-9.9,9.9-9.9c5.5,0,9.9,4.4,9.9,9.9
		C94.9,30.7,90.5,35.2,85,35.2z M85,20.6c-2.6,0-4.7,2.1-4.7,4.7S82.4,30,85,30c2.6,0,4.7-2.1,4.7-4.7S87.7,20.6,85,20.6z"/>
</g>
<g id="XMLID_154_">
	<circle id="XMLID_158_" class="st8" cx="128.8" cy="39.5" r="7.3"/>
	<path id="XMLID_155_" class="st7" d="M128.8,49.4c-5.5,0-9.9-4.4-9.9-9.9s4.4-9.9,9.9-9.9c5.5,0,9.9,4.4,9.9,9.9
		S134.3,49.4,128.8,49.4z M128.8,34.8c-2.6,0-4.7,2.1-4.7,4.7c0,2.6,2.1,4.7,4.7,4.7c2.6,0,4.7-2.1,4.7-4.7
		C133.5,36.9,131.4,34.8,128.8,34.8z"/>
</g>
<path id="XMLID_153_" class="st9" d="M68,95.1"/>
<polygon id="XMLID_152_" class="st5" points="68,102.3 68.2,94 102.2,93.1 102.1,102.9 "/>
<polygon id="XMLID_149_" class="st5" points="24.6,102.3 24.6,94.8 58.6,94 58.6,102.9 "/>
<path id="XMLID_148_" class="st5" d="M111.9,100.9l-0.1-11.4c0,0,6.2-6.5,8.6-7.8c2.4-1.3,4.7-1.8,11.4-1.8l14.1,0v15.2L111.9,100.9
	z"/>
<path id="XMLID_141_" class="st10" d="M164.9,115.7v-28c0,0-15-0.3-33.4,0c-5.1,0.1-15.7,12.9-15.7,12.9L5.5,102.6V129v13.3v13.3
	h13.3v13.3h13.3v-13.3H45v13.3h13.6v-13.3H45.4v-13.3h13.3v13.3h13.3v13.3h13.3v-13.3h13.1v13.3h13.5v-13.3H125v-13.3h-13.3V129H125
	v13.3h13.1v13.3h13.3v13.3h13.4v-13.3h-13.3v-13.3h13.3V129h-13.3v-13.3H164.9z M111.6,155.6H98.5v-13.3h13.1V155.6z M151.4,142.3
	h-13.1V129h13.1V142.3z"/>
<g id="XMLID_129_">
	<path id="XMLID_137_" class="st11" d="M294.5,87.9C294.5,105,283,129,251,129c-10.8,0-20.5,0-28.7,0v38.5h-29V129V46.6h29
		c3.7,0,11.7,0,29,0C281.1,46.6,294.5,69.3,294.5,87.9z M268.4,87.9c0-3-1.1-7.3-3.9-10.4c-3-3.3-7.3-4.8-13.2-4.8h-29v30.3H251
		c3.9,0,7.1-0.6,9.7-1.7c1.7-0.9,3-1.9,4.3-3.2C267.5,94.9,268.4,90.7,268.4,87.9z"/>
	<path id="XMLID_135_" class="st11" d="M331.3,141.5h55.4v26h-84.5V46.6h84.5v26h-55.4V94h47.1v26.1h-47.1V141.5z"/>
	<path id="XMLID_132_" class="st11" d="M499.2,87.9c0,17.1-11.5,41.1-43.5,41.1c-10.8,0-20.5,0-28.7,0v38.5h-29V129V46.6h29
		c3.7,0,11.7,0,29,0C485.8,46.6,499.2,69.3,499.2,87.9z M473.1,87.9c0-3-1.1-7.3-3.9-10.4c-3-3.3-7.3-4.8-13.2-4.8h-29v30.3h28.7
		c3.9,0,7.1-0.6,9.7-1.7c1.7-0.9,3-1.9,4.3-3.2C472.2,94.9,473.1,90.7,473.1,87.9z"/>
	<path id="XMLID_130_" class="st11" d="M536,141.5h55.4v26H507V46.6h84.5v26H536V94h47.1v26.1H536V141.5z"/>
</g>
<g id="XMLID_10_">
	<path id="XMLID_126_" class="st11" d="M6,193.6h8.5c2.3,0,5.1,0.9,5.1,6c0,5.9-2.9,6.3-5.1,6.3c-1.1,0-5.8-0.5-5.9-0.6v8.6H6V193.6
		z M14.4,203.4c1.4,0,2.6-0.5,2.6-3.8c0-3.3-1.6-3.6-2.6-3.6H8.6v7.4H14.4z"/>
	<path id="XMLID_123_" class="st11" d="M22.3,208.8c0-2.2,1.3-3.8,3.9-3.8c0,0,5.7,0,5.7,0c0,0,0-1.6,0-1.6c0-1.7-0.8-2.2-2.2-2.2
		c-1.8,0-4.6,0.2-6.9,0.3v-1.7c2-0.6,4.3-0.9,7.1-0.9c2.5,0,4.6,1.2,4.6,4.4v10.6h-2l-0.6-1.7c-0.1,0.1-3.3,1.9-5.7,1.9
		c-2.3,0-3.8-1.5-3.8-3.7V208.8z M26.5,211.8c2.1,0,5.4-1.3,5.4-1.3v-3.6l-5.5,0.4c-1.2,0.1-1.5,0.9-1.5,1.7v1.2
		C24.9,211.4,25.6,211.8,26.5,211.8z"/>
	<path id="XMLID_120_" class="st11" d="M37.6,195.1c0-0.4,0.2-0.7,0.7-0.7h1.8c0.4,0,0.6,0.3,0.6,0.7v1.8c0,0.4-0.2,0.6-0.6,0.6
		h-1.8c-0.4,0-0.7-0.3-0.7-0.6V195.1z M37.8,199.2h2.6v14.8h-2.6V199.2z"/>
	<path id="XMLID_118_" class="st11" d="M44.1,199.2H46l0.7,1.7c1.6-1,3-1.9,5.2-1.9c3.1,0,4.5,2.3,4.5,4.9v10.2h-2.6v-10.2
		c0-1.7-1-2.5-2.3-2.5c-2,0-3.1,0.5-4.9,1.5v11.2h-2.6V199.2z"/>
	<path id="XMLID_110_" class="st11" d="M65.7,199.1c3.7,0,5.8,0.4,5.8,5.3c0,2.3-1.2,3.5-3.9,3.5h-5.8c0,3.3,0.7,3.9,2.9,3.9
		c2.5,0,4.5,0,6.5-0.3v1.8c-2.2,0.7-4.8,0.8-7.1,0.8c-3.8,0-4.9-1.9-4.9-7.6C59.3,200,61.1,199.1,65.7,199.1z M67.4,205.6
		c1.1,0,1.6-0.4,1.6-1.3c0-2.6-0.5-2.9-3.2-2.9c-2.8,0-4,0.1-4,4.2H67.4z"/>
	<path id="XMLID_108_" class="st11" d="M74.7,192.2h2.6v16.4c0,2.3,0.6,2.9,1.5,3.1c0,0,2.1,0.6,2.3,0.6v1.7h-2.7
		c-2.2,0-3.7-1.3-3.7-5.3V192.2z"/>
	<path id="XMLID_105_" class="st11" d="M95.8,199c1.3,0,3.5,0.4,5.2,1.1v-7.9h2.5v21.8h-1.9l-0.6-1.6c-0.8,0.6-3.3,1.8-5.2,1.8
		c-3.9,0-4.9-3.8-4.9-7.5C90.9,202.6,91.6,199,95.8,199z M96,211.7c2,0,3.6-0.6,4.9-1.2V202c-1.7-0.5-3-0.7-4.9-0.7
		c-1.6,0-2.6,1-2.6,5.3C93.5,210.1,94.4,211.7,96,211.7z"/>
	<path id="XMLID_102_" class="st11" d="M113.3,199.1c3.7,0,5.8,0.4,5.8,5.3c0,2.3-1.2,3.5-3.9,3.5h-5.8c0,3.3,0.7,3.9,2.9,3.9
		c2.5,0,4.5,0,6.5-0.3v1.8c-2.2,0.7-4.8,0.8-7.1,0.8c-3.8,0-4.9-1.9-4.9-7.6C106.9,200,108.7,199.1,113.3,199.1z M115,205.6
		c1.1,0,1.6-0.4,1.6-1.3c0-2.6-0.5-2.9-3.2-2.9c-2.8,0-4,0.1-4,4.2H115z"/>
	<path id="XMLID_100_" class="st11" d="M130.3,197.4c0-2.9,1.9-3.9,3.8-3.8c0,0,8.3,0.4,8.8,0.4v2.1h-8.6c-1.4,0-1.4,0.8-1.4,1.6
		v4.9l8.9,0.3v2.1l-8.9,0.3v4.9c0,1.5,0.9,1.4,1.7,1.4h8.3v2c-0.4,0.1-8.6,0.5-8.6,0.5c-1.8,0.1-4-0.4-4-3.7V197.4z"/>
	<path id="XMLID_97_" class="st11" d="M147.8,199.2l4.2,11.3l4.3-11.3h2.8l-5.8,14.8h-2.7l-5.6-14.8H147.8z"/>
	<path id="XMLID_93_" class="st11" d="M167.5,199c5,0,6.6,1.9,6.6,7.7c0,5.5-1.5,7.3-6.6,7.3c-5,0-6.6-2-6.6-7.3
		C161,200.7,162.6,199,167.5,199z M167.5,211.7c2.8,0,4-0.4,4-5c0-5-1-5.4-4-5.4c-2.9,0-4,0.4-4,5.4
		C163.5,211.4,164.9,211.7,167.5,211.7z"/>
	<path id="XMLID_91_" class="st11" d="M177.5,192.2h2.6v16.4c0,2.3,0.6,2.9,1.5,3.1c0,0,2.1,0.6,2.3,0.6v1.7h-2.7
		c-2.2,0-3.7-1.3-3.7-5.3V192.2z"/>
	<path id="XMLID_89_" class="st11" d="M186.2,199.2h2.6v10.2c0,1.7,1,2.5,2.3,2.5c2,0,3.1-0.5,4.9-1.5v-11.2h2.6v14.8h-1.9l-0.7-1.7
		c-1.6,0.9-3,1.9-5.2,1.9c-3.1,0-4.5-2.3-4.5-4.9V199.2z"/>
	<path id="XMLID_86_" class="st11" d="M206.8,199c1.4,0,4.4,0.3,6.5,0.8v1.8c0,0-3.5-0.2-6-0.2c-1.7,0-2.8,0.3-2.8,5.3
		c0,4.1,0.8,5.1,2.8,5.1c2.6,0,6.2-0.3,6.2-0.3v1.8c-2.2,0.8-4.4,0.8-6.7,0.8c-2.8,0-4.9-1.2-4.9-7.6
		C201.9,200.2,203.9,199,206.8,199z M206.8,217.2c0.8-0.3,0.9-1.1,0.9-2.2h2.1c0,2.8-0.6,3.8-2.9,3.8h-1.5v-1.2L206.8,217.2z"/>
	<path id="XMLID_82_" class="st11" d="M216.1,208.8c0-2.2,1.3-3.8,3.9-3.8c0,0,5.7,0,5.7,0c0,0,0-1.6,0-1.6c0-1.7-0.8-2.2-2.2-2.2
		c-1.8,0-4.6,0.2-6.9,0.3v-1.7c2-0.6,4.3-0.9,7.1-0.9c2.5,0,4.6,1.2,4.6,4.4v10.6h-2l-0.6-1.7c-0.1,0.1-3.3,1.9-5.7,1.9
		c-2.3,0-3.8-1.5-3.8-3.7V208.8z M220.8,194.2c1.4,0.1,2.1,0.9,3,1c0.7,0,1.7-0.5,2.5-1l0.6,1.3c-0.9,0.7-2,1.8-3.2,1.8
		c-1.5-0.1-2-1-3-0.9c-1.2,0-1.6,0.5-2.6,1l-0.6-1.2C218.6,195.1,219.6,194.2,220.8,194.2z M220.2,211.8c2.1,0,5.4-1.3,5.4-1.3v-3.6
		l-5.5,0.4c-1.2,0.1-1.5,0.9-1.5,1.7v1.2C218.6,211.4,219.3,211.8,220.2,211.8z"/>
	<path id="XMLID_79_" class="st11" d="M237.9,199c5,0,6.6,1.9,6.6,7.7c0,5.5-1.5,7.3-6.6,7.3c-5,0-6.6-2-6.6-7.3
		C231.3,200.7,233,199,237.9,199z M237.9,211.7c2.8,0,4-0.4,4-5c0-5-1-5.4-4-5.4c-2.9,0-4,0.4-4,5.4
		C233.9,211.4,235.2,211.7,237.9,211.7z"/>
	<path id="XMLID_76_" class="st11" d="M259.9,199c1.3,0,3.5,0.4,5.2,1.1v-7.9h2.5v21.8h-1.9l-0.6-1.6c-0.8,0.6-3.3,1.8-5.2,1.8
		c-3.9,0-4.9-3.8-4.9-7.5C255.1,202.6,255.8,199,259.9,199z M260.2,211.7c2,0,3.6-0.6,4.9-1.2V202c-1.7-0.5-3-0.7-4.9-0.7
		c-1.6,0-2.6,1-2.6,5.3C257.6,210.1,258.5,211.7,260.2,211.7z"/>
	<path id="XMLID_73_" class="st11" d="M277.6,199c5,0,6.6,1.9,6.6,7.7c0,5.5-1.5,7.3-6.6,7.3c-5,0-6.6-2-6.6-7.3
		C271,200.7,272.7,199,277.6,199z M277.6,211.7c2.8,0,4-0.4,4-5c0-5-1-5.4-4-5.4c-2.9,0-4,0.4-4,5.4
		C273.6,211.4,275,211.7,277.6,211.7z"/>
	<path id="XMLID_71_" class="st11" d="M286.6,202.8c0-2.3,1-3.8,3.8-3.8c1.8,0,6.1,0.2,7.4,0.5v1.8h-7.1c-1.6,0-1.6,0.6-1.6,1.5v1.1
		c0,1.4,0.7,1.4,1.6,1.4h4.2c2.5,0,3.7,1.5,3.7,3.6v1.4c0,3-1.8,3.6-3.6,3.6c-1.8,0-6.7-0.3-7.8-0.6v-1.8h7.4c0.1,0,1.4,0.1,1.4-1.3
		v-1.2c0-0.9-0.3-1.4-1.4-1.4h-4.1c-2.6,0-3.9-0.9-3.9-3.7V202.8z"/>
	<path id="XMLID_68_" class="st11" d="M309.3,193.6h8.5c2.3,0,5.1,0.9,5.1,6c0,5.9-2.9,6.3-5.1,6.3c-1.1,0-5.8-0.5-5.9-0.6v8.6h-2.6
		V193.6z M317.7,203.4c1.4,0,2.6-0.5,2.6-3.8c0-3.3-1.6-3.6-2.6-3.6h-5.8v7.4H317.7z"/>
	<path id="XMLID_66_" class="st11" d="M326.1,199.2h1.9l0.6,1.9c1.5-1,3-2,5.2-2c0.8,0,1.6,0,1.9,0.2v2.5c-0.4-0.1-1.3-0.1-2.1-0.1
		c-2.1,0-3.2,0.5-5,1.6v10.7h-2.6V199.2z"/>
	<path id="XMLID_63_" class="st11" d="M344.2,199c5,0,6.6,1.9,6.6,7.7c0,5.5-1.5,7.3-6.6,7.3c-5,0-6.6-2-6.6-7.3
		C337.6,200.7,339.3,199,344.2,199z M344.2,211.7c2.8,0,4-0.4,4-5c0-5-1-5.4-4-5.4c-2.9,0-4,0.4-4,5.4
		C340.2,211.4,341.5,211.7,344.2,211.7z"/>
	<path id="XMLID_61_" class="st11" d="M358.5,199c1.4,0,4.4,0.3,6.5,0.8v1.8c0,0-3.5-0.2-6-0.2c-1.7,0-2.8,0.3-2.8,5.3
		c0,4.1,0.8,5.1,2.8,5.1c2.6,0,6.2-0.3,6.2-0.3v1.8c-2.2,0.8-4.4,0.8-6.7,0.8c-2.8,0-4.9-1.2-4.9-7.5
		C353.6,200.2,355.6,199,358.5,199z"/>
	<path id="XMLID_58_" class="st11" d="M373.9,199.1c3.7,0,5.8,0.4,5.8,5.3c0,2.3-1.2,3.5-3.9,3.5H370c0,3.3,0.7,3.9,2.9,3.9
		c2.5,0,4.5,0,6.5-0.3v1.8c-2.2,0.7-4.8,0.8-7.1,0.8c-3.8,0-4.9-1.9-4.9-7.6C367.5,200,369.3,199.1,373.9,199.1z M375.6,205.6
		c1.1,0,1.6-0.4,1.6-1.3c0-2.6-0.5-2.9-3.2-2.9c-2.8,0-4,0.1-4,4.2H375.6z"/>
	<path id="XMLID_56_" class="st11" d="M382.4,202.8c0-2.3,1-3.8,3.8-3.8c1.8,0,6.1,0.2,7.4,0.5v1.8h-7.1c-1.6,0-1.6,0.6-1.6,1.5v1.1
		c0,1.4,0.7,1.4,1.6,1.4h4.2c2.5,0,3.7,1.5,3.7,3.6v1.4c0,3-1.8,3.6-3.6,3.6c-1.8,0-6.7-0.3-7.8-0.6v-1.8h7.4c0.1,0,1.4,0.1,1.4-1.3
		v-1.2c0-0.9-0.3-1.4-1.4-1.4h-4.1c-2.6,0-3.9-0.9-3.9-3.7V202.8z"/>
	<path id="XMLID_54_" class="st11" d="M396.7,202.8c0-2.3,1-3.8,3.8-3.8c1.8,0,6.1,0.2,7.4,0.5v1.8h-7.1c-1.6,0-1.6,0.6-1.6,1.5v1.1
		c0,1.4,0.7,1.4,1.6,1.4h4.2c2.5,0,3.7,1.5,3.7,3.6v1.4c0,3-1.8,3.6-3.6,3.6c-1.8,0-6.7-0.3-7.8-0.6v-1.8h7.4c0.1,0,1.4,0.1,1.4-1.3
		v-1.2c0-0.9-0.3-1.4-1.4-1.4h-4.1c-2.6,0-3.9-0.9-3.9-3.7V202.8z"/>
	<path id="XMLID_51_" class="st11" d="M418.2,199c5,0,6.6,1.9,6.6,7.7c0,5.5-1.5,7.3-6.6,7.3c-5,0-6.6-2-6.6-7.3
		C411.6,200.7,413.3,199,418.2,199z M418.2,211.7c2.8,0,4-0.4,4-5c0-5-1-5.4-4-5.4c-2.9,0-4,0.4-4,5.4
		C414.1,211.4,415.5,211.7,418.2,211.7z"/>
	<path id="XMLID_49_" class="st11" d="M427.2,202.8c0-2.3,1-3.8,3.8-3.8c1.8,0,6.1,0.2,7.4,0.5v1.8h-7.1c-1.6,0-1.6,0.6-1.6,1.5v1.1
		c0,1.4,0.7,1.4,1.6,1.4h4.2c2.5,0,3.7,1.5,3.7,3.6v1.4c0,3-1.8,3.6-3.6,3.6c-1.8,0-6.7-0.3-7.8-0.6v-1.8h7.4c0.1,0,1.4,0.1,1.4-1.3
		v-1.2c0-0.9-0.3-1.4-1.4-1.4h-4.1c-2.6,0-3.9-0.9-3.9-3.7V202.8z"/>
	<path id="XMLID_47_" class="st11" d="M450.3,197.4c0-2.9,1.9-3.9,3.8-3.8c0,0,8.3,0.4,8.8,0.4v2.1h-8.6c-1.4,0-1.4,0.8-1.4,1.6v4.9
		l8.9,0.3v2.1l-8.9,0.3v4.9c0,1.5,0.9,1.4,1.7,1.4h8.3v2c-0.4,0.1-8.6,0.5-8.6,0.5c-1.8,0.1-4-0.4-4-3.7V197.4z"/>
	<path id="XMLID_45_" class="st11" d="M466.1,192.2h2.6v16.4c0,2.3,0.6,2.9,1.5,3.1c0,0,2.1,0.6,2.3,0.6v1.7h-2.7
		c-2.2,0-3.7-1.3-3.7-5.3V192.2z"/>
	<path id="XMLID_42_" class="st11" d="M480.2,199.1c3.7,0,5.8,0.4,5.8,5.3c0,2.3-1.2,3.5-3.9,3.5h-5.8c0,3.3,0.7,3.9,2.9,3.9
		c2.5,0,4.5,0,6.5-0.3v1.8c-2.2,0.7-4.8,0.8-7.1,0.8c-3.8,0-4.9-1.9-4.9-7.6C473.8,200,475.6,199.1,480.2,199.1z M481.9,205.6
		c1.1,0,1.6-0.4,1.6-1.3c0-2.6-0.5-2.9-3.2-2.9c-2.8,0-4,0.1-4,4.2H481.9z"/>
	<path id="XMLID_40_" class="st11" d="M488.1,199.7l2.7-0.6l0.5-4.1h2v4.1h4v2.3h-4v7c0,2.4,0.6,2.9,1.5,3.1c0,0,2.1,0.6,2.3,0.6
		v1.7h-2.7c-2.2,0-3.7-1.3-3.7-5.3v-7.2h-2.7V199.7z"/>
	<path id="XMLID_38_" class="st11" d="M500.3,199.2h1.9l0.6,1.9c1.5-1,3-2,5.2-2c0.8,0,1.6,0,1.9,0.2v2.5c-0.4-0.1-1.3-0.1-2.1-0.1
		c-2.1,0-3.2,0.5-5,1.6v10.7h-2.6V199.2z"/>
	<path id="XMLID_34_" class="st11" d="M518.3,199c5,0,6.6,1.9,6.6,7.7c0,5.5-1.5,7.3-6.6,7.3c-5,0-6.6-2-6.6-7.3
		C511.8,200.7,513.5,199,518.3,199z M518.3,211.7c2.8,0,4-0.4,4-5c0-5-1-5.4-4-5.4c-2.9,0-4,0.4-4,5.4
		C514.3,211.4,515.7,211.7,518.3,211.7z M517.5,193.7h2.2l2.8,3.7h-2.1l-1.9-1.9l-2.1,1.9h-2.2L517.5,193.7z"/>
	<path id="XMLID_32_" class="st11" d="M528.3,199.2h1.9l0.7,1.7c1.6-1,3-1.9,5.2-1.9c3.1,0,4.5,2.3,4.5,4.9v10.2h-2.6v-10.2
		c0-1.7-1-2.5-2.3-2.5c-2,0-3.1,0.5-4.9,1.5v11.2h-2.6V199.2z"/>
	<path id="XMLID_29_" class="st11" d="M543.7,195.1c0-0.4,0.2-0.7,0.7-0.7h1.8c0.4,0,0.6,0.3,0.6,0.7v1.8c0,0.4-0.2,0.6-0.6,0.6
		h-1.8c-0.4,0-0.7-0.3-0.7-0.6V195.1z M544,199.2h2.6v14.8H544V199.2z"/>
	<path id="XMLID_21_" class="st11" d="M554.9,199c1.4,0,4.4,0.3,6.5,0.8v1.8c0,0-3.5-0.2-6-0.2c-1.7,0-2.8,0.3-2.8,5.3
		c0,4.1,0.8,5.1,2.8,5.1c2.6,0,6.2-0.3,6.2-0.3v1.8c-2.2,0.8-4.4,0.8-6.7,0.8c-2.8,0-4.9-1.2-4.9-7.5C550,200.2,552,199,554.9,199z"
		/>
	<path id="XMLID_13_" class="st11" d="M570.4,199c5,0,6.6,1.9,6.6,7.7c0,5.5-1.5,7.3-6.6,7.3c-5,0-6.6-2-6.6-7.3
		C563.8,200.7,565.5,199,570.4,199z M570.4,211.7c2.8,0,4-0.4,4-5c0-5-1-5.4-4-5.4c-2.9,0-4,0.4-4,5.4
		C566.4,211.4,567.8,211.7,570.4,211.7z"/>
	<path id="XMLID_11_" class="st11" d="M579.4,202.8c0-2.3,1-3.8,3.8-3.8c1.8,0,6.1,0.2,7.4,0.5v1.8h-7.1c-1.6,0-1.6,0.6-1.6,1.5v1.1
		c0,1.4,0.7,1.4,1.6,1.4h4.2c2.5,0,3.7,1.5,3.7,3.6v1.4c0,3-1.8,3.6-3.6,3.6c-1.8,0-6.7-0.3-7.8-0.6v-1.8h7.4c0.1,0,1.4,0.1,1.4-1.3
		v-1.2c0-0.9-0.3-1.4-1.4-1.4h-4.1c-2.6,0-3.9-0.9-3.9-3.7V202.8z"/>
</g>
</svg>
